<svg width="16" height="16" viewBox="0 0 16 16" fill="none" xmlns="http://www.w3.org/2000/svg">
<path d="M7.97656 0.500488C10.0143 0.500488 10.2686 0.507988 11.0681 0.545488C11.8668 0.582988 12.4106 0.708238 12.8891 0.894238C13.3841 1.08474 13.8011 1.34274 14.2181 1.75899C14.5994 2.13391 14.8945 2.58743 15.0828 3.08799C15.2681 3.56574 15.3941 4.11024 15.4316 4.90899C15.4668 5.70849 15.4766 5.96274 15.4766 8.00049C15.4766 10.0382 15.4691 10.2925 15.4316 11.092C15.3941 11.8907 15.2681 12.4345 15.0828 12.913C14.8951 13.4138 14.5999 13.8675 14.2181 14.242C13.843 14.6232 13.3895 14.9183 12.8891 15.1067C12.4113 15.292 11.8668 15.418 11.0681 15.4555C10.2686 15.4907 10.0143 15.5005 7.97656 15.5005C5.93881 15.5005 5.68456 15.493 4.88506 15.4555C4.08631 15.418 3.54256 15.292 3.06406 15.1067C2.56331 14.9188 2.10971 14.6237 1.73506 14.242C1.35362 13.8671 1.05851 13.4136 0.870313 12.913C0.684313 12.4352 0.559062 11.8907 0.521562 11.092C0.486312 10.2925 0.476562 10.0382 0.476562 8.00049C0.476562 5.96274 0.484062 5.70849 0.521562 4.90899C0.559062 4.10949 0.684313 3.56649 0.870313 3.08799C1.05799 2.58712 1.35317 2.13348 1.73506 1.75899C2.10982 1.37741 2.56338 1.08229 3.06406 0.894238C3.54256 0.708238 4.08556 0.582988 4.88506 0.545488C5.68456 0.510238 5.93881 0.500488 7.97656 0.500488ZM7.97656 4.25049C6.982 4.25049 6.02817 4.64558 5.32491 5.34884C4.62165 6.0521 4.22656 7.00593 4.22656 8.00049C4.22656 8.99505 4.62165 9.94888 5.32491 10.6521C6.02817 11.3554 6.982 11.7505 7.97656 11.7505C8.97112 11.7505 9.92495 11.3554 10.6282 10.6521C11.3315 9.94888 11.7266 8.99505 11.7266 8.00049C11.7266 7.00593 11.3315 6.0521 10.6282 5.34884C9.92495 4.64558 8.97112 4.25049 7.97656 4.25049ZM12.8516 4.06299C12.8516 3.81435 12.7528 3.57589 12.577 3.40008C12.4012 3.22426 12.1627 3.12549 11.9141 3.12549C11.6654 3.12549 11.427 3.22426 11.2511 3.40008C11.0753 3.57589 10.9766 3.81435 10.9766 4.06299C10.9766 4.31163 11.0753 4.55009 11.2511 4.7259C11.427 4.90172 11.6654 5.00049 11.9141 5.00049C12.1627 5.00049 12.4012 4.90172 12.577 4.7259C12.7528 4.55009 12.8516 4.31163 12.8516 4.06299ZM7.97656 5.75049C8.5733 5.75049 9.1456 5.98754 9.56755 6.4095C9.98951 6.83145 10.2266 7.40375 10.2266 8.00049C10.2266 8.59723 9.98951 9.16952 9.56755 9.59148C9.1456 10.0134 8.5733 10.2505 7.97656 10.2505C7.37983 10.2505 6.80753 10.0134 6.38557 9.59148C5.96361 9.16952 5.72656 8.59723 5.72656 8.00049C5.72656 7.40375 5.96361 6.83145 6.38557 6.4095C6.80753 5.98754 7.37983 5.75049 7.97656 5.75049Z" fill="#B6D1ED"/>
</svg>
