<svg width="14" height="14" viewBox="0 0 14 14" fill="none" xmlns="http://www.w3.org/2000/svg">
<path d="M11.7278 11.7547H9.72906V8.62199C9.72906 7.87499 9.71406 6.91349 8.68656 6.91349C7.64481 6.91349 7.48581 7.72649 7.48581 8.56724V11.7547H5.48631V5.31299H7.40631V6.19049H7.43256C7.70106 5.68499 8.35356 5.15024 9.32856 5.15024C11.3536 5.15024 11.7286 6.48374 11.7286 8.21849V11.7547H11.7278ZM3.22881 4.43174C3.07623 4.43194 2.92511 4.40202 2.78411 4.34369C2.64311 4.28537 2.51501 4.19979 2.40716 4.09187C2.2993 3.98394 2.2138 3.85578 2.15557 3.71475C2.09734 3.57371 2.06752 3.42257 2.06781 3.26999C2.06796 3.04036 2.1362 2.81594 2.26389 2.6251C2.39159 2.43426 2.57301 2.28556 2.78521 2.19783C2.99741 2.11009 3.23086 2.08725 3.45605 2.13219C3.68123 2.17714 3.88803 2.28784 4.05029 2.45032C4.21256 2.61279 4.323 2.81973 4.36765 3.04497C4.4123 3.27022 4.38916 3.50364 4.30115 3.71573C4.21314 3.92781 4.06421 4.10904 3.87321 4.23649C3.6822 4.36394 3.45769 4.43189 3.22806 4.43174H3.22881ZM4.23081 11.7547H2.22606V5.31299H4.23156V11.7547H4.23081ZM12.7291 0.250488H1.22331C0.671313 0.250488 0.226562 0.685488 0.226562 1.22324V12.7777C0.226562 13.3155 0.672063 13.7505 1.22256 13.7505H12.7261C13.2766 13.7505 13.7266 13.3155 13.7266 12.7777V1.22324C13.7266 0.685488 13.2766 0.250488 12.7261 0.250488H12.7283H12.7291Z" fill="#B6D1ED"/>
</svg>
