<svg width="81" height="81" viewBox="0 0 81 81" fill="none" xmlns="http://www.w3.org/2000/svg">
<g clip-path="url(#clip0_473_33421)">
<path d="M73.24 28.7305H49.8026C48.5072 28.7305 47.4589 29.7787 47.4589 31.0742V35.7617C47.4589 37.0548 46.4061 38.1054 45.1151 38.1054H31.0527C29.7573 38.1054 28.709 39.1537 28.709 40.4491V63.8865C28.709 67.7637 31.863 70.9177 35.7402 70.9177H56.8338V77.9489C56.8338 78.8964 57.406 79.7525 58.2804 80.1141C59.1326 80.4725 60.1535 80.2872 60.8347 79.606L69.523 70.9177H73.24C77.1171 70.9177 80.2712 67.7637 80.2712 63.8865V35.7617C80.2712 31.8845 77.1173 28.7305 73.24 28.7305Z" fill="url(#paint0_linear_473_33421)"/>
<g filter="url(#filter0_bi_473_33421)">
<path d="M45.117 0.376938H7.61722C3.72646 0.376938 0.586008 3.51754 0.586008 7.40815V35.533C0.586008 39.4234 3.72646 42.5642 7.61722 42.5642H11.3202L20.039 51.2359C20.4607 51.7048 21.0701 51.9391 21.6795 51.9391C21.9607 51.9391 22.2888 51.8923 22.5701 51.7515C23.4607 51.3768 24.0232 50.5331 24.0232 49.5954V42.5642H45.1168C49.0076 42.5642 52.148 39.4234 52.148 35.533V7.40815C52.1482 3.51754 49.0078 0.376938 45.117 0.376938Z" fill="url(#paint1_linear_473_33421)"/>
<path d="M11.6728 42.2097L11.5265 42.0642H11.3202H7.61722C4.00261 42.0642 1.086 39.1473 1.086 35.533V7.40815C1.086 3.79368 4.00261 0.876935 7.61722 0.876935H45.117C48.7316 0.876935 51.6482 3.79368 51.6481 7.40813V35.533C51.6481 39.1473 48.7314 42.0642 45.1168 42.0642H24.0232H23.5232V42.5642V49.5954C23.5232 50.3276 23.0853 50.9923 22.3762 51.2906L22.361 51.297L22.3463 51.3044C22.1579 51.3987 21.9143 51.4391 21.6795 51.4391C21.1937 51.4391 20.7261 51.2522 20.4108 50.9015L20.4015 50.8912L20.3916 50.8813L11.6728 42.2097Z" stroke="url(#paint2_linear_473_33421)" stroke-width="0.999994"/>
</g>
<path d="M18.2372 29.465C22.8452 30.297 25.3412 27.481 25.3412 22.4249V14.1049H18.2372V21.785H21.9492C22.2052 24.537 21.4372 26.713 18.6212 26.457L18.2372 29.465ZM28.0932 29.465C32.7012 30.297 35.1972 27.481 35.1972 22.4249V14.1049H28.0932V21.785H31.8052C32.0612 24.537 31.2932 26.713 28.4772 26.457L28.0932 29.465Z" fill="white"/>
</g>
<defs>
<filter id="filter0_bi_473_33421" x="-11.4141" y="-11.623" width="75.5625" height="75.5625" filterUnits="userSpaceOnUse" color-interpolation-filters="sRGB">
<feFlood flood-opacity="0" result="BackgroundImageFix"/>
<feGaussianBlur in="BackgroundImageFix" stdDeviation="6"/>
<feComposite in2="SourceAlpha" operator="in" result="effect1_backgroundBlur_473_33421"/>
<feBlend mode="normal" in="SourceGraphic" in2="effect1_backgroundBlur_473_33421" result="shape"/>
<feColorMatrix in="SourceAlpha" type="matrix" values="0 0 0 0 0 0 0 0 0 0 0 0 0 0 0 0 0 0 127 0" result="hardAlpha"/>
<feOffset/>
<feGaussianBlur stdDeviation="2"/>
<feComposite in2="hardAlpha" operator="arithmetic" k2="-1" k3="1"/>
<feColorMatrix type="matrix" values="0 0 0 0 1 0 0 0 0 1 0 0 0 0 1 0 0 0 0.64 0"/>
<feBlend mode="normal" in2="shape" result="effect2_innerShadow_473_33421"/>
</filter>
<linearGradient id="paint0_linear_473_33421" x1="21.3747" y1="54.5117" x2="88.8329" y2="54.5117" gradientUnits="userSpaceOnUse">
<stop stop-color="#255DBE"/>
<stop offset="1" stop-color="#5A9BF8"/>
</linearGradient>
<linearGradient id="paint1_linear_473_33421" x1="50.8371" y1="51.1716" x2="0.57754" y2="0.945528" gradientUnits="userSpaceOnUse">
<stop stop-color="#4B88E4" stop-opacity="0.42"/>
<stop offset="1" stop-color="#EAF6FF"/>
<stop offset="1" stop-color="#00B2FF" stop-opacity="0.49"/>
</linearGradient>
<linearGradient id="paint2_linear_473_33421" x1="26.367" y1="0.376953" x2="26.367" y2="51.9392" gradientUnits="userSpaceOnUse">
<stop offset="0.442708" stop-color="white" stop-opacity="0.26"/>
<stop offset="1" stop-color="#4BC8E4" stop-opacity="0.26"/>
</linearGradient>
<clipPath id="clip0_473_33421">
<rect width="80" height="80" fill="white" transform="translate(0.271484 0.292969)"/>
</clipPath>
</defs>
</svg>
